<?xml version="1.0" standalone="no"?>
<!DOCTYPE svg PUBLIC "-//W3C//DTD SVG 20010904//EN"
 "http://www.w3.org/TR/2001/REC-SVG-20010904/DTD/svg10.dtd">
<svg version="1.0" xmlns="http://www.w3.org/2000/svg"
 width="2048.000000pt" height="1536.000000pt" viewBox="0 0 2048.000000 1536.000000"
 preserveAspectRatio="xMidYMid meet">

<g transform="translate(0.000000,1536.000000) scale(0.100000,-0.100000)"
fill="#000000" stroke="none">
<path d="M0 7680 l0 -7680 10240 0 10240 0 0 7680 0 7680 -10240 0 -10240 0 0
-7680z m7372 1353 c36 -27 119 -85 185 -130 118 -82 275 -194 387 -275 133
-97 285 -200 356 -240 56 -32 84 -63 77 -83 -10 -25 -107 -16 -107 10 0 7 -14
15 -30 19 -17 3 -47 21 -67 41 -20 19 -42 35 -49 35 -7 0 -19 6 -27 14 -7 8
-42 29 -78 46 -35 18 -66 36 -69 40 -3 3 -21 15 -40 25 -19 10 -40 21 -47 24
-6 3 -49 31 -95 62 -138 93 -191 126 -233 147 -42 21 -169 38 -204 27 -20 -6
-51 -56 -51 -82 0 -18 -46 -97 -65 -113 -8 -7 -15 -23 -15 -36 0 -12 -4 -25
-9 -28 -4 -3 -11 -27 -14 -53 -3 -26 -9 -56 -12 -65 -6 -16 -1 -18 39 -18 29
0 45 -4 44 -11 -2 -6 11 -20 27 -29 38 -23 45 -24 45 -4 0 12 7 15 26 11 14
-2 40 2 57 11 43 21 43 20 21 36 -18 14 -18 15 -1 34 13 15 18 41 21 118 3 96
10 134 26 134 4 0 12 10 18 23 10 20 11 18 11 -19 1 -23 6 -55 12 -73 8 -21 8
-35 1 -44 -6 -6 -10 -60 -10 -118 0 -59 -3 -112 -6 -118 -4 -6 0 -14 8 -17 18
-7 23 -64 6 -64 -5 0 -10 -7 -10 -15 0 -21 13 -19 30 5 8 11 24 20 35 20 25 0
52 30 57 62 3 23 9 25 63 16 16 -2 21 4 25 35 3 21 7 38 10 39 3 1 33 -2 67
-6 72 -8 123 -30 124 -54 0 -11 2 -12 6 -4 9 22 23 13 23 -15 0 -25 -7 -31
-68 -56 -37 -15 -78 -27 -91 -27 -16 0 -21 -4 -18 -14 7 -19 -9 -32 -58 -45
-22 -6 -49 -18 -59 -26 -11 -8 -30 -15 -43 -15 -26 0 -103 -36 -103 -48 0 -4
-5 -52 -10 -106 -11 -115 -3 -132 42 -89 14 14 32 23 40 20 8 -3 1 -11 -19
-23 -18 -11 -33 -26 -33 -34 0 -9 -6 -22 -12 -28 -8 -8 -13 -44 -14 -90 -1
-42 -5 -94 -9 -114 -15 -75 41 -31 91 71 16 33 33 60 38 60 4 1 21 12 38 26
16 14 35 25 42 25 6 0 19 9 29 20 9 11 23 20 32 20 19 0 38 36 30 60 -4 11 -2
20 4 20 5 0 24 15 42 34 18 19 44 38 58 41 14 4 29 11 32 16 3 6 21 11 38 11
18 1 35 6 37 13 3 6 10 12 17 13 7 0 29 4 50 8 31 5 36 4 32 -8 -3 -8 -25 -21
-48 -29 -23 -7 -62 -24 -87 -36 -25 -13 -51 -23 -57 -23 -7 0 -13 -7 -13 -15
0 -13 7 -15 38 -9 20 3 51 12 67 19 17 7 48 16 70 20 21 4 45 15 53 26 7 10
20 19 28 19 8 0 12 5 9 10 -3 6 1 10 9 10 9 0 16 -4 16 -9 0 -13 25 -20 50
-14 14 4 19 11 15 21 -5 12 -2 12 19 -1 21 -14 26 -14 36 -2 17 20 94 20 110
0 8 -10 10 -29 6 -53 -5 -33 -2 -42 18 -59 23 -20 41 -87 52 -197 2 -21 13
-69 24 -106 11 -37 20 -82 20 -99 0 -18 5 -41 11 -52 25 -47 79 -295 79 -361
0 -21 4 -38 9 -38 14 0 31 -58 31 -106 0 -24 5 -46 10 -49 6 -3 10 -21 10 -40
0 -18 9 -53 19 -78 10 -24 27 -76 37 -116 17 -72 33 -93 57 -73 6 6 35 19 62
30 28 11 76 32 107 46 31 14 61 26 66 26 12 0 190 72 247 100 22 10 87 40 145
65 58 26 125 56 150 67 25 11 54 24 65 28 11 5 46 20 78 34 32 14 60 26 64 26
5 0 140 62 175 81 10 5 25 9 33 9 8 0 15 4 15 9 0 5 11 12 25 15 25 6 111 45
251 112 39 19 76 34 81 34 6 0 55 21 109 46 54 25 113 51 129 58 82 36 223 99
250 111 152 71 227 105 232 105 3 0 38 16 79 35 40 19 79 35 86 35 8 0 24 7
36 16 13 9 44 24 70 33 48 18 103 43 247 111 113 54 186 86 215 95 14 4 41 16
60 26 19 11 38 19 42 19 4 0 45 18 90 39 46 21 94 42 108 46 14 3 43 15 65 25
22 10 65 29 95 41 30 13 57 26 60 29 3 3 25 13 50 22 25 9 89 35 143 57 116
49 167 53 187 16 7 -14 18 -25 25 -25 17 0 34 -21 28 -36 -6 -17 -46 -18 -75
-3 -12 7 -46 11 -76 11 -55 0 -179 -28 -197 -44 -5 -4 -19 -8 -31 -8 -11 0
-33 -11 -47 -24 -14 -13 -28 -21 -31 -19 -3 3 -8 -2 -12 -11 -3 -9 -14 -16
-24 -16 -11 0 -35 -9 -54 -21 -19 -11 -41 -17 -47 -13 -7 4 -9 3 -5 -4 8 -13
-24 -32 -52 -32 -10 0 -27 -9 -37 -20 -10 -11 -22 -20 -27 -20 -6 0 -21 -9
-34 -19 -14 -11 -49 -23 -79 -26 -45 -6 -61 -14 -94 -46 -22 -21 -44 -39 -50
-39 -6 0 -11 -5 -11 -11 0 -16 -24 -36 -38 -31 -7 2 -12 -5 -12 -18 0 -16 -4
-20 -19 -15 -24 7 -32 -14 -27 -75 l4 -45 -41 2 c-23 2 -36 0 -29 -3 17 -8 15
-24 -3 -24 -8 0 -15 -5 -15 -11 0 -5 -4 -8 -9 -5 -5 4 -23 -5 -39 -19 -16 -14
-35 -25 -42 -25 -6 0 -10 -6 -7 -12 2 -7 19 -13 38 -13 48 0 83 -27 75 -58 -4
-16 -1 -29 9 -37 7 -6 11 -18 8 -26 -4 -10 4 -14 31 -14 31 0 36 -3 36 -24 0
-19 6 -25 28 -28 34 -4 47 -48 13 -48 -11 0 -27 -10 -36 -22 -13 -20 -17 -21
-25 -8 -9 13 -10 13 -10 0 0 -32 13 -60 27 -60 8 0 17 -9 20 -20 3 -11 13 -20
23 -20 9 0 29 -11 45 -25 22 -21 30 -23 41 -14 8 7 13 18 10 24 -8 22 37 5 60
-22 26 -30 47 -22 42 15 -2 15 3 27 11 30 10 3 12 0 8 -11 -4 -11 1 -18 15
-23 23 -7 39 11 31 33 -4 11 2 13 23 11 33 -3 49 -19 31 -30 -8 -5 -7 -8 4 -8
19 0 46 28 51 54 3 18 5 17 20 -7 14 -20 16 -32 8 -52 -7 -20 -6 -32 6 -50 18
-28 10 -48 -16 -40 -13 4 -19 -1 -23 -22 -5 -28 9 -57 23 -48 4 2 5 17 2 31
-5 26 -4 27 32 21 27 -4 36 -2 36 9 0 18 8 18 28 -2 24 -25 22 -53 -6 -75 -30
-23 -22 -37 13 -21 36 17 45 15 45 -8 0 -11 7 -20 16 -20 11 0 13 6 9 19 -3
11 -1 22 5 26 5 3 10 14 10 23 0 12 -3 13 -11 5 -6 -6 -18 -9 -25 -6 -10 4
-11 10 -3 25 10 18 17 19 65 13 49 -6 53 -5 47 11 -6 15 -2 14 17 -4 17 -16
27 -19 34 -12 14 15 -30 49 -63 50 -20 0 -21 2 -11 15 14 16 36 20 42 6 2 -4
14 -11 28 -15 14 -3 19 -3 13 0 -15 7 -17 30 -4 38 5 3 20 -3 34 -14 25 -20
67 -27 67 -12 0 11 39 12 45 1 12 -18 26 -9 19 13 -6 21 -6 21 10 5 22 -22 39
-12 32 18 -6 23 9 43 22 30 3 -3 0 -10 -7 -14 -19 -12 5 -25 27 -16 9 4 36 7
60 6 32 -2 42 1 42 13 0 9 5 16 10 16 6 0 10 5 10 12 0 16 42 108 49 108 3 0
13 -5 21 -10 12 -7 12 -12 2 -22 -6 -6 -12 -8 -12 -2 0 5 -7 -4 -15 -20 -19
-36 -19 -61 1 -80 13 -14 14 -16 0 -16 -8 0 -18 5 -21 10 -10 16 -22 11 -28
-11 -3 -12 -10 -18 -15 -15 -6 4 -8 -3 -5 -14 l6 -21 14 21 c19 27 28 25 43
-10 7 -16 16 -27 21 -24 12 7 11 -17 0 -35 -14 -22 -2 -41 25 -41 22 0 24 -3
18 -27 -4 -16 -8 -30 -10 -32 -2 -2 7 -12 20 -22 23 -18 56 -17 56 2 0 5 8 10
18 10 16 1 16 2 0 6 -10 2 -18 9 -18 14 0 10 12 12 34 3 20 -8 21 -34 1 -34
-22 0 -18 -18 6 -25 19 -6 19 -8 4 -25 -15 -16 -14 -18 12 -18 15 0 34 5 41
11 10 8 16 8 21 -1 8 -13 25 -3 33 19 6 15 38 26 93 32 17 2 20 -4 20 -38 0
-46 -27 -62 -39 -23 -5 14 -9 18 -13 10 -3 -7 0 -19 7 -27 8 -10 8 -19 1 -34
-14 -26 -14 -31 4 -31 8 0 15 5 15 10 0 6 6 10 14 10 8 0 21 9 28 19 13 18 14
18 40 -4 35 -30 40 -59 10 -63 -42 -6 -12 -20 33 -15 35 4 46 2 51 -11 8 -20
28 -21 44 -1 10 12 16 13 27 4 8 -7 35 -11 61 -10 62 2 110 -8 91 -20 -10 -6
-8 -9 9 -9 12 0 25 -6 28 -14 4 -10 14 -12 39 -6 41 9 58 0 53 -31 -2 -20 1
-24 22 -21 65 8 139 2 147 -11 7 -11 61 -149 117 -302 12 -33 29 -74 38 -90 9
-17 18 -44 20 -60 5 -30 18 -66 44 -118 8 -16 14 -38 14 -50 0 -37 19 -93 44
-130 25 -36 25 -50 0 -40 -22 8 -17 -24 7 -46 21 -19 21 -22 6 -45 -16 -23
-16 -25 3 -31 21 -7 28 -25 10 -25 -5 0 -10 -4 -10 -10 0 -5 6 -10 14 -10 10
0 14 -15 15 -57 0 -43 -2 -54 -10 -43 -8 11 -8 9 -3 -10 4 -14 8 -43 9 -65 1
-22 3 -44 4 -49 0 -5 14 -6 31 -3 16 4 32 2 35 -3 4 -6 -8 -13 -26 -17 -19 -3
-34 -13 -36 -24 -3 -11 -9 -16 -14 -13 -5 3 -6 -2 -3 -10 5 -12 -1 -16 -26
-16 -27 0 -30 3 -25 21 6 19 4 20 -32 14 -58 -10 -63 -13 -63 -34 0 -11 -4
-22 -9 -25 -5 -4 -7 3 -4 14 7 25 -8 26 -37 0 -20 -17 -20 -20 -6 -26 9 -3 16
-15 16 -25 0 -17 -3 -18 -20 -9 -14 8 -26 8 -40 0 -27 -15 -25 -30 5 -30 18 0
23 -4 19 -15 -4 -9 0 -15 10 -15 9 0 16 5 16 10 0 6 9 10 20 10 11 0 20 -4 20
-10 0 -5 -7 -10 -15 -10 -7 0 -18 -7 -23 -15 -10 -19 -42 -10 -42 11 0 8 -4
14 -9 14 -6 0 -9 -9 -8 -20 1 -11 5 -20 9 -20 4 0 8 -8 8 -18 0 -9 9 -23 21
-30 12 -8 18 -19 15 -28 -4 -10 3 -16 24 -21 17 -3 33 -10 36 -15 8 -13 -14
-36 -38 -40 -12 -2 -23 -9 -26 -17 -3 -9 2 -11 17 -6 17 5 21 2 21 -15 0 -12
-4 -30 -10 -40 -8 -15 -6 -20 9 -25 13 -4 17 -12 14 -25 -4 -15 -1 -18 15 -13
28 7 35 -11 12 -32 -19 -17 -20 -17 -20 -1 0 16 -2 16 -15 2 -19 -19 -19 -33
0 -53 14 -14 14 -17 -2 -28 -10 -6 -31 -15 -46 -19 -35 -8 -33 -34 3 -54 l25
-13 -27 4 c-21 3 -28 0 -28 -13 0 -17 36 -57 49 -53 3 1 5 -6 3 -15 -7 -47
-13 -62 -22 -57 -5 3 -11 1 -15 -5 -3 -5 1 -10 9 -10 20 0 21 -19 1 -27 -9 -3
-24 2 -34 11 -23 21 -28 20 -34 -5 -3 -12 -11 -19 -19 -16 -23 8 -49 -13 -46
-36 5 -38 35 -48 63 -21 18 19 30 13 22 -11 -4 -9 -19 -15 -37 -15 -23 0 -30
-5 -30 -19 0 -13 -7 -19 -22 -19 -45 -1 -154 -24 -174 -37 -11 -7 -63 -23
-115 -35 -52 -12 -130 -30 -174 -40 -44 -11 -100 -22 -125 -25 -25 -3 -99 -19
-165 -35 -66 -15 -151 -34 -190 -41 -38 -6 -81 -16 -95 -22 -14 -5 -68 -18
-120 -27 -52 -10 -176 -36 -275 -58 -225 -51 -610 -135 -735 -161 -52 -10
-129 -26 -170 -35 -41 -9 -106 -22 -145 -30 -220 -44 -286 -58 -340 -72 -33
-9 -91 -22 -130 -30 -310 -65 -512 -109 -709 -155 -137 -32 -140 -32 -190 -16
-28 10 -69 21 -91 26 -22 5 -67 17 -100 26 -131 38 -314 87 -385 104 -41 10
-106 27 -145 38 -38 11 -126 37 -195 57 -69 20 -135 36 -148 36 -12 0 -30 4
-40 9 -18 10 -94 32 -262 76 -58 15 -123 37 -145 49 -57 29 -125 85 -125 102
0 8 -5 14 -12 14 -17 0 -48 31 -48 48 0 8 14 37 30 64 40 65 40 86 -2 83 -22
-2 -35 -9 -42 -24 -5 -11 -14 -21 -20 -21 -15 1 -66 47 -66 60 0 5 -6 10 -14
10 -8 0 -17 6 -20 13 -3 6 -3 2 -1 -10 3 -12 1 -24 -5 -28 -6 -4 -10 4 -10 19
0 14 -4 28 -10 31 -5 3 -10 17 -10 31 0 21 -3 23 -19 14 -27 -14 -29 -13 -57
17 -19 20 -27 24 -36 15 -7 -7 -20 -12 -30 -12 -11 0 -23 -11 -28 -26 -6 -14
-14 -23 -20 -19 -12 7 -1 36 22 56 10 9 18 21 18 28 0 6 9 11 20 11 11 0 20 4
20 10 0 5 -15 8 -32 6 -18 -2 -39 -4 -47 -5 -11 -1 -10 -4 4 -14 12 -9 14 -16
7 -21 -18 -11 -54 32 -46 56 4 13 2 18 -5 14 -6 -4 -20 -2 -31 4 -16 8 -25 8
-35 0 -8 -7 -15 -7 -19 -1 -4 5 -21 8 -39 5 -36 -4 -132 -47 -142 -64 -9 -14
-48 -13 -63 2 -7 7 -12 41 -12 83 0 61 -12 182 -26 253 -3 15 -17 28 -38 37
-18 8 -39 21 -46 30 -11 13 -10 18 6 30 10 8 24 15 31 15 18 0 27 21 13 30
-13 8 -79 -6 -94 -21 -15 -14 -52 -11 -65 5 -8 9 -13 114 -17 332 -3 176 -7
382 -9 459 -19 836 -17 1184 11 1619 5 88 21 145 49 176 16 18 24 158 30 562
4 250 0 287 -26 261 -5 -5 -11 -23 -13 -39 -7 -52 -11 -59 -39 -77 -24 -15
-57 -19 -187 -22 -93 -3 -162 -1 -165 5 -6 10 23 109 36 124 5 6 9 25 9 43 0
18 4 41 9 51 5 9 14 29 20 45 6 15 18 27 26 27 12 0 14 6 8 28 -3 15 -6 36 -5
46 0 11 -6 24 -14 31 -21 15 -8 41 27 56 34 14 110 89 103 101 -3 4 -51 5
-107 2 -96 -6 -108 -9 -197 -54 -86 -42 -133 -70 -197 -115 -12 -8 -34 -39
-48 -68 -15 -28 -33 -56 -41 -60 -8 -4 -14 -14 -14 -21 0 -8 -7 -27 -15 -42
-8 -16 -15 -37 -15 -46 0 -10 -11 -41 -24 -70 -13 -29 -29 -71 -36 -93 -7 -22
-16 -44 -20 -50 -4 -5 -13 -26 -18 -45 -6 -19 -33 -98 -61 -175 -28 -77 -81
-228 -117 -335 -36 -107 -71 -201 -77 -208 -7 -9 -22 -11 -43 -7 -25 4 -33 2
-36 -11 -2 -14 -38 -24 -168 -50 -91 -19 -219 -40 -285 -49 -66 -8 -147 -22
-180 -30 -33 -9 -112 -23 -175 -31 -63 -8 -133 -20 -155 -25 -37 -10 -41 -9
-62 18 -13 15 -23 33 -23 39 0 7 -11 22 -25 35 -55 52 -19 94 128 149 59 22
112 40 117 40 6 0 29 8 53 18 23 11 71 29 107 41 94 33 142 50 165 61 11 5 36
12 55 15 19 4 49 14 66 22 32 14 32 15 16 45 -33 67 5 442 50 496 40 47 206
240 226 262 22 25 71 83 223 267 115 139 155 171 242 195 39 11 113 31 162 44
182 50 442 116 509 130 38 8 72 16 74 19 9 9 17 5 84 -42z m213 -593 c-3 -5
-11 -10 -16 -10 -6 0 -7 5 -4 10 3 6 11 10 16 10 6 0 7 -4 4 -10z m710 -330
c3 -5 -1 -10 -10 -10 -9 0 -13 5 -10 10 3 6 8 10 10 10 2 0 7 -4 10 -10z
m3360 -518 c20 -5 35 -20 35 -35 0 -14 -64 4 -77 22 -18 23 -16 34 5 26 9 -4
26 -10 37 -13z m435 -42 c0 -5 -4 -10 -10 -10 -5 0 -10 5 -10 10 0 6 5 10 10
10 6 0 10 -4 10 -10z m35 -140 c3 -5 -1 -10 -10 -10 -9 0 -13 5 -10 10 3 6 8
10 10 10 2 0 7 -4 10 -10z m-235 -24 c0 -3 -4 -8 -10 -11 -5 -3 -10 -1 -10 4
0 6 5 11 10 11 6 0 10 -2 10 -4z m300 -25 c0 -5 -9 -7 -20 -4 -11 3 -20 12
-20 20 0 11 4 11 20 3 11 -6 20 -15 20 -19z m-45 -10 c0 -8 -13 -15 -33 -16
-35 -3 -53 12 -31 26 20 13 64 6 64 -10z m-215 -19 c13 -13 15 -13 20 7 5 20
6 21 28 6 37 -27 29 -40 -42 -73 -5 -3 -6 0 -2 7 4 6 3 11 -2 11 -18 0 -23
-33 -7 -42 14 -8 14 -11 0 -24 -13 -13 -20 -13 -50 -3 -22 8 -35 20 -35 31 0
10 -6 18 -12 19 -10 0 -10 2 0 6 14 6 16 49 2 58 -5 3 -10 10 -10 14 0 14 93
-1 110 -17z m730 4 c0 -3 -4 -8 -10 -11 -5 -3 -10 -1 -10 4 0 6 5 11 10 11 6
0 10 -2 10 -4z m-539 -48 c10 -18 9 -20 -6 -15 -9 4 -19 7 -21 7 -2 0 -4 7 -4
15 0 22 18 18 31 -7z m-361 -3 c0 -10 -10 -15 -32 -15 -30 0 -31 1 -12 15 25
19 44 19 44 0z m273 -16 c-4 -13 -9 -17 -15 -11 -11 11 -3 32 12 32 4 0 6 -9
3 -21z m497 11 c0 -5 -5 -10 -11 -10 -5 0 -7 5 -4 10 3 6 8 10 11 10 2 0 4 -4
4 -10z m-453 -26 c-9 -9 -28 6 -21 18 4 6 10 6 17 -1 6 -6 8 -13 4 -17z m703
-5 c0 -5 -9 -9 -20 -9 -12 0 -22 -9 -26 -24 l-6 -25 -29 26 c-28 25 -30 49 -4
39 7 -2 26 -1 42 3 30 9 43 6 43 -10z m-437 -28 c-2 -11 2 -21 8 -21 5 0 7 -4
4 -10 -15 -24 -35 -9 -35 26 0 24 4 34 13 31 6 -2 11 -14 10 -26z m-53 -2 c0
-5 -4 -9 -10 -9 -5 0 -10 7 -10 16 0 8 5 12 10 9 6 -3 10 -10 10 -16z m630
-34 c0 -8 -7 -15 -15 -15 -9 0 -12 6 -9 15 4 8 10 15 15 15 5 0 9 -7 9 -15z
m-570 -85 c0 -5 -7 -10 -15 -10 -8 0 -15 5 -15 10 0 6 7 10 15 10 8 0 15 -4
15 -10z m738 -137 c16 -16 16 -16 -1 -10 -10 4 -23 7 -28 7 -6 0 -7 5 -4 10 9
14 14 13 33 -7z m230 -69 c18 -8 32 -17 32 -19 0 -2 -16 -3 -35 -2 -26 2 -35
7 -35 20 0 21 -1 21 38 1z m787 -1854 c3 -5 1 -10 -4 -10 -6 0 -11 5 -11 10 0
6 2 10 4 10 3 0 8 -4 11 -10z m25 -95 c0 -8 -4 -15 -10 -15 -5 0 -10 7 -10 15
0 8 5 15 10 15 6 0 10 -7 10 -15z m40 -6 c0 -6 -4 -7 -10 -4 -5 3 -10 11 -10
16 0 6 5 7 10 4 6 -3 10 -11 10 -16z m-2 -138 c-15 -5 -21 7 -13 26 7 17 8 17
15 -2 4 -11 3 -22 -2 -24z m-6108 -386 c-7 -8 -9 -15 -4 -15 5 0 1 -5 -9 -11
-14 -8 -22 -8 -30 0 -8 8 -7 11 5 11 8 0 21 7 28 15 7 8 15 15 17 15 3 0 0 -7
-7 -15z m165 -165 c3 -5 -3 -10 -14 -10 -12 0 -21 5 -21 10 0 6 6 10 14 10 8
0 18 -4 21 -10z"/>
<path d="M7770 8384 c0 -8 5 -12 10 -9 6 3 10 10 10 16 0 5 -4 9 -10 9 -5 0
-10 -7 -10 -16z"/>
<path d="M11440 7590 c0 -5 5 -10 10 -10 6 0 10 5 10 10 0 6 -4 10 -10 10 -5
0 -10 -4 -10 -10z"/>
<path d="M11466 7423 c-11 -11 -6 -23 8 -23 8 0 17 4 20 9 7 10 -19 23 -28 14z"/>
<path d="M11587 7350 c3 -11 7 -20 9 -20 2 0 4 9 4 20 0 11 -4 20 -9 20 -5 0
-7 -9 -4 -20z"/>
<path d="M11492 7333 c-15 -6 -6 -23 14 -23 8 0 14 7 14 15 0 15 -6 17 -28 8z"/>
<path d="M11605 7320 c-4 -6 0 -19 9 -29 9 -10 13 -21 9 -24 -3 -4 6 -7 20 -7
31 0 34 8 10 26 -10 7 -18 18 -18 25 0 17 -21 23 -30 9z"/>
<path d="M11986 7161 c-3 -5 1 -14 8 -20 16 -13 32 2 21 19 -8 12 -22 13 -29
1z"/>
<path d="M12720 7150 c0 -5 4 -10 9 -10 6 0 13 5 16 10 3 6 -1 10 -9 10 -9 0
-16 -4 -16 -10z"/>
<path d="M11818 7123 c-10 -2 -18 -9 -18 -14 0 -5 0 -12 0 -16 0 -5 12 -11 25
-15 18 -4 25 -2 25 7 0 8 -5 17 -10 20 -6 4 -8 11 -5 16 4 5 5 8 3 8 -2 -1
-11 -3 -20 -6z"/>
<path d="M11868 7100 c-6 -40 13 -56 35 -30 11 14 31 21 59 22 l43 1 -50 6
c-32 4 -49 10 -47 19 1 6 -6 12 -17 12 -13 0 -20 -9 -23 -30z"/>
<path d="M12685 7090 c3 -5 8 -10 11 -10 2 0 4 5 4 10 0 6 -5 10 -11 10 -5 0
-7 -4 -4 -10z"/>
<path d="M12530 7020 c0 -23 28 -40 64 -40 25 0 38 20 14 20 -7 0 -24 9 -38
20 -32 25 -40 25 -40 0z"/>
<path d="M12786 7032 c-3 -5 1 -15 9 -22 16 -14 20 -3 6 19 -5 8 -11 9 -15 3z"/>
<path d="M12720 7020 c0 -5 6 -10 14 -10 8 0 18 5 21 10 3 6 -3 10 -14 10 -12
0 -21 -4 -21 -10z"/>
<path d="M12720 6974 c0 -9 5 -14 12 -12 18 6 21 28 4 28 -9 0 -16 -7 -16 -16z"/>
<path d="M12475 6944 c8 -9 22 -13 30 -10 26 10 16 26 -16 26 -28 0 -29 -1
-14 -16z"/>
<path d="M12706 6931 c-16 -17 -16 -19 3 -24 27 -7 46 16 28 32 -11 8 -18 7
-31 -8z"/>
<path d="M12262 6908 c5 -15 37 -18 41 -3 1 6 -9 12 -22 13 -16 3 -22 -1 -19
-10z"/>
<path d="M11875 6900 c3 -5 10 -10 16 -10 5 0 9 5 9 10 0 6 -7 10 -16 10 -8 0
-12 -4 -9 -10z"/>
<path d="M12342 6881 c-10 -6 -10 -10 2 -20 10 -9 16 -9 21 -1 10 16 -7 31
-23 21z"/>
<path d="M11750 6785 c0 -8 7 -15 15 -15 8 0 15 7 15 15 0 8 -7 15 -15 15 -8
0 -15 -7 -15 -15z"/>
<path d="M13305 6720 c-3 -5 1 -10 9 -10 9 0 16 5 16 10 0 6 -4 10 -9 10 -6 0
-13 -4 -16 -10z"/>
<path d="M14155 5870 c4 -6 11 -8 16 -5 14 9 11 15 -7 15 -8 0 -12 -5 -9 -10z"/>
<path d="M7680 4975 c0 -8 2 -15 4 -15 2 0 6 7 10 15 3 8 1 15 -4 15 -6 0 -10
-7 -10 -15z"/>
<path d="M7650 4965 c-10 -12 -10 -15 4 -15 9 0 16 7 16 15 0 8 -2 15 -4 15
-2 0 -9 -7 -16 -15z"/>
<path d="M7630 4925 c0 -8 4 -15 10 -15 5 0 7 7 4 15 -4 8 -8 15 -10 15 -2 0
-4 -7 -4 -15z"/>
<path d="M14012 4921 c-11 -7 -10 -10 3 -15 20 -7 38 1 30 15 -7 11 -16 11
-33 0z"/>
<path d="M13980 4856 c0 -2 7 -6 15 -10 8 -3 15 -1 15 4 0 6 -7 10 -15 10 -8
0 -15 -2 -15 -4z"/>
<path d="M13916 4747 c-6 -24 7 -43 23 -33 16 10 14 43 -3 49 -9 4 -16 -3 -20
-16z"/>
<path d="M13963 4632 c-18 -2 -33 -7 -33 -11 0 -13 24 -31 42 -31 10 0 18 -8
19 -17 0 -10 5 -5 9 11 12 39 2 52 -37 48z"/>
<path d="M13920 4554 c0 -8 5 -12 10 -9 6 3 10 10 10 16 0 5 -4 9 -10 9 -5 0
-10 -7 -10 -16z"/>
<path d="M8080 4532 c0 -5 7 -12 15 -16 8 -3 15 -11 15 -18 0 -7 11 -18 25
-25 14 -6 25 -7 25 -2 0 5 13 9 29 9 26 0 41 14 41 41 0 5 -17 8 -37 8 -21 0
-55 3 -75 6 -23 5 -38 3 -38 -3z"/>
<path d="M13855 4430 c27 -12 35 -12 35 0 0 6 -12 10 -27 9 -25 0 -26 -1 -8
-9z"/>
<path d="M8328 4363 c6 -2 18 -2 25 0 6 3 1 5 -13 5 -14 0 -19 -2 -12 -5z"/>
</g>
</svg>
